<svg width="63" height="63" viewBox="0 0 63 63" fill="none" xmlns="http://www.w3.org/2000/svg">
<g filter="url(#filter0_d_12_853)">
<path d="M47 32C47 23.7157 40.2843 17 32 17C23.7157 17 17 23.7157 17 32C17 40.2843 23.7157 47 32 47C40.2843 47 47 40.2843 47 32Z" fill="#EDEEF2"/>
</g>
<g filter="url(#filter1_d_12_853)">
<path d="M47 32C47 23.7157 40.2843 17 32 17C23.7157 17 17 23.7157 17 32C17 40.2843 23.7157 47 32 47C40.2843 47 47 40.2843 47 32Z" fill="url(#paint0_linear_12_853)"/>
</g>
<g filter="url(#filter2_d_12_853)">
<path d="M32 38C35.3137 38 38 35.3137 38 32C38 28.6863 35.3137 26 32 26C28.6863 26 26 28.6863 26 32C26 35.3137 28.6863 38 32 38Z" fill="url(#paint1_linear_12_853)"/>
</g>
<defs>
<filter id="filter0_d_12_853" x="4.44186" y="4.44186" width="57.907" height="57.907" filterUnits="userSpaceOnUse" color-interpolation-filters="sRGB">
<feFlood flood-opacity="0" result="BackgroundImageFix"/>
<feColorMatrix in="SourceAlpha" type="matrix" values="0 0 0 0 0 0 0 0 0 0 0 0 0 0 0 0 0 0 127 0" result="hardAlpha"/>
<feOffset dx="1.39535" dy="1.39535"/>
<feGaussianBlur stdDeviation="6.97674"/>
<feColorMatrix type="matrix" values="0 0 0 0 0.141176 0 0 0 0 0.254902 0 0 0 0 0.364706 0 0 0 0.302 0"/>
<feBlend mode="normal" in2="BackgroundImageFix" result="effect1_dropShadow_12_853"/>
<feBlend mode="normal" in="SourceGraphic" in2="effect1_dropShadow_12_853" result="shape"/>
</filter>
<filter id="filter1_d_12_853" x="0.953489" y="0.953489" width="57.907" height="57.907" filterUnits="userSpaceOnUse" color-interpolation-filters="sRGB">
<feFlood flood-opacity="0" result="BackgroundImageFix"/>
<feColorMatrix in="SourceAlpha" type="matrix" values="0 0 0 0 0 0 0 0 0 0 0 0 0 0 0 0 0 0 127 0" result="hardAlpha"/>
<feOffset dx="-2.09302" dy="-2.09302"/>
<feGaussianBlur stdDeviation="6.97674"/>
<feColorMatrix type="matrix" values="0 0 0 0 1 0 0 0 0 1 0 0 0 0 1 0 0 0 1 0"/>
<feBlend mode="normal" in2="BackgroundImageFix" result="effect1_dropShadow_12_853"/>
<feBlend mode="normal" in="SourceGraphic" in2="effect1_dropShadow_12_853" result="shape"/>
</filter>
<filter id="filter2_d_12_853" x="23.907" y="24.6047" width="16.186" height="16.186" filterUnits="userSpaceOnUse" color-interpolation-filters="sRGB">
<feFlood flood-opacity="0" result="BackgroundImageFix"/>
<feColorMatrix in="SourceAlpha" type="matrix" values="0 0 0 0 0 0 0 0 0 0 0 0 0 0 0 0 0 0 127 0" result="hardAlpha"/>
<feOffset dy="0.697674"/>
<feGaussianBlur stdDeviation="1.04651"/>
<feColorMatrix type="matrix" values="0 0 0 0 0.141176 0 0 0 0 0.254902 0 0 0 0 0.364706 0 0 0 0.298 0"/>
<feBlend mode="normal" in2="BackgroundImageFix" result="effect1_dropShadow_12_853"/>
<feBlend mode="normal" in="SourceGraphic" in2="effect1_dropShadow_12_853" result="shape"/>
</filter>
<linearGradient id="paint0_linear_12_853" x1="45.86" y1="45.86" x2="8.54" y2="13.88" gradientUnits="userSpaceOnUse">
<stop stop-color="#F2F3F6"/>
<stop offset="1" stop-color="#E5E6EC"/>
</linearGradient>
<linearGradient id="paint1_linear_12_853" x1="33.416" y1="32" x2="29.06" y2="26" gradientUnits="userSpaceOnUse">
<stop stop-color="#20374D"/>
<stop offset="1" stop-color="#2C3036"/>
</linearGradient>
</defs>
</svg>
