<svg width="28" height="32" viewBox="0 0 28 32" fill="none" xmlns="http://www.w3.org/2000/svg">
<path fill-rule="evenodd" clip-rule="evenodd" d="M36.8856 0.122925C36.8541 0.192657 36.8422 8.27691 36.8592 18.0881L36.8901 35.9265L37.1676 35.9596C37.8345 36.0392 37.7929 37.2369 37.7929 17.9946C37.7929 4.32023 37.7596 0.211511 37.6484 0.117859C37.4589 -0.0417749 36.9584 -0.0384314 36.8856 0.122925ZM10.8316 8.14738C10.0703 8.44192 9.12243 8.80923 8.72523 8.96359C7.36417 9.49266 2.46673 11.3765 1.48577 11.7484C0.0629603 12.2878 -0.0670305 12.3724 0.106412 12.6453C0.219915 12.8239 0.355082 12.8683 0.785499 12.8683C1.12962 12.8683 1.32665 12.9139 1.33327 12.995C1.33905 13.0647 1.35253 13.3856 1.36336 13.7082C1.38647 14.3963 1.51923 14.5092 2.25573 14.4671L2.76727 14.4379V14.9698C2.76727 15.392 2.81698 15.5279 3.008 15.6284C3.24186 15.7514 3.24872 15.8647 3.24872 19.6102C3.24872 23.3401 3.2409 23.4711 3.008 23.639C2.82673 23.7697 2.76727 23.938 2.76727 24.3204V24.8281H2.16245C1.62407 24.8281 1.54487 24.8566 1.44027 25.0881C1.37576 25.2311 1.32292 25.4988 1.32292 25.6831C1.32292 26.0062 1.3033 26.0199 0.766362 26.0708C0.460279 26.0999 0.163223 26.1857 0.106291 26.2614C-0.0551154 26.4759 -0.024662 28.1124 0.143365 28.2539C0.253737 28.3469 3.12571 28.3756 12.3361 28.3756C21.5465 28.3756 24.4185 28.3469 24.5289 28.2539C24.6213 28.1761 24.6733 27.7789 24.6733 27.1499C24.6733 26.0577 24.6632 26.0444 23.8269 26.0444H23.3614L23.3252 25.4616L23.2891 24.8788L22.5971 24.8484L21.905 24.818V24.2054C21.905 23.6782 21.8715 23.5855 21.6642 23.5399C21.4288 23.488 21.4235 23.4017 21.4235 19.6034C21.4235 15.8089 21.4291 15.7184 21.6642 15.6555C21.869 15.6008 21.905 15.5022 21.905 14.995V14.3987L22.5971 14.3683L23.2891 14.3379L23.3238 13.5743L23.3585 12.8107L23.9034 12.7907C24.5485 12.767 24.6733 12.7151 24.6733 12.4702C24.6733 12.3443 24.4559 12.2054 23.9812 12.0283C23.6005 11.8861 22.5309 11.4758 21.6041 11.1165C20.6773 10.7571 19.594 10.3385 19.1968 10.1863C18.7996 10.0341 17.1205 9.38948 15.4656 8.75368C13.8106 8.11789 12.4023 7.60088 12.3361 7.60483C12.2699 7.60868 11.5929 7.85284 10.8316 8.14738ZM13.5725 8.72237C14.1502 8.95072 15.8959 9.63061 17.4515 10.2332C21.9568 11.9784 22.3864 12.1502 22.3864 12.2067C22.3864 12.2361 17.8909 12.2602 12.3963 12.2602C6.90174 12.2602 2.40715 12.226 2.40823 12.1841C2.41088 12.087 12.0234 8.33408 12.3087 8.31877C12.4259 8.31249 12.9946 8.49412 13.5725 8.72237ZM22.6271 13.3244V13.7805H12.3963H2.16546V13.3244V12.8683H12.3963H22.6271V13.3244ZM51.1811 7.82348C51.1811 8.27238 51.1747 8.27958 50.7819 8.27958C49.5967 8.27958 48.1484 8.64648 47.3067 9.15984C45.187 10.4526 45.2812 13.62 47.4773 14.8895C48.2004 15.3075 48.9998 15.5154 50.3084 15.6256L51.1811 15.699V16.149V16.5989L52.1666 16.5694L53.1521 16.54L53.1596 16.1358L53.167 15.7317L54.2503 15.6138C55.9329 15.4309 56.9284 15.0466 57.662 14.2972C58.7669 13.1684 58.8174 10.9445 57.7643 9.78196C57.001 8.93909 55.9673 8.5206 54.1901 8.33481L53.167 8.22788V7.79753V7.36708L52.1741 7.36728L51.1811 7.36738V7.82348ZM64.9943 7.6684C62.784 8.00652 61.3168 9.08919 60.8806 10.704C60.3189 12.7837 61.0956 14.6121 62.9485 15.5721C64.999 16.6345 68.5882 16.4541 70.4335 15.1959C70.7215 14.9996 70.7233 14.9893 70.5163 14.7232C70.2015 14.3187 70.0588 14.3173 69.3632 14.7114C68.5604 15.1664 67.5875 15.4106 66.5875 15.4083C65.1923 15.4049 64.3449 15.0832 63.6184 14.2811C63.109 13.7187 62.9646 13.2976 62.8892 12.1547C62.7365 9.83679 64.0558 8.48229 66.4661 8.48229C67.6153 8.48229 68.4159 8.7081 69.3202 9.28725L69.9465 9.6883L70.253 9.3816C70.4215 9.21285 70.5595 9.03649 70.5595 8.98966C70.5595 8.8131 69.0596 8.07038 68.2906 7.86625C67.395 7.62847 65.8581 7.53624 64.9943 7.6684ZM76.698 7.63486C76.4663 7.65989 76.0059 7.75304 75.6749 7.84183C73.3512 8.46526 72.2446 9.78348 72.2446 11.9283C72.2446 13.8255 73.134 15.0928 74.9533 15.7874C76.9477 16.5489 79.8377 16.3869 81.5042 15.4203C82.1428 15.0499 82.2018 14.9093 81.8617 14.5676C81.6329 14.3377 81.5917 14.3298 81.3338 14.4663C81.1798 14.5477 80.8095 14.7418 80.5105 14.8978C79.7294 15.3055 78.3391 15.5266 77.4173 15.3899C76.5131 15.2557 76.0178 15.0581 75.4439 14.6023C74.8768 14.1519 74.579 13.5936 74.4065 12.6576C74.0691 10.8261 74.9946 9.08697 76.5432 8.64263C77.2606 8.43677 78.5204 8.43758 79.3541 8.64445C79.7138 8.73364 80.3187 8.98449 80.6987 9.2019C81.0786 9.41931 81.4307 9.59577 81.4811 9.59404C81.5314 9.59222 81.6758 9.47171 81.802 9.32606C81.9612 9.14221 81.9967 9.01531 81.9181 8.91051C81.742 8.67536 80.415 8.03531 79.695 7.83818C79.0366 7.65787 77.4688 7.55154 76.698 7.63486ZM85.9214 8.71033C85.5433 13.1374 85.381 14.4477 85.1782 14.7083C84.9162 15.0449 84.4089 15.2731 83.9223 15.2731H83.5517L83.5853 16.616L83.6188 17.959H84.4H85.1813L85.2673 17.5029C85.3146 17.252 85.3861 16.8301 85.4262 16.5653L85.4993 16.0839H89.2759H93.0525L93.1304 16.5653C93.1731 16.8301 93.2455 17.252 93.291 17.5029L93.3738 17.959H94.1534H94.933L94.9665 16.6217L95 15.2844L94.4249 15.2534L93.8497 15.2224L93.8182 11.4976L93.7865 7.7728H89.894H86.0014L85.9214 8.71033ZM91.7433 11.9808V15.2767L89.1555 15.2689C87.7322 15.2645 86.5677 15.2261 86.5677 15.1834C86.5677 15.1407 86.7041 14.9979 86.8707 14.866C87.2995 14.5268 87.3743 14.1911 87.593 11.6243C87.6997 10.37 87.8131 9.19562 87.8449 9.0144L87.9027 8.68499H89.823H91.7433V11.9808ZM7.82251 14.9859C7.82251 15.4233 7.87078 15.5988 8.00306 15.6416C8.27026 15.7278 8.27628 23.4589 8.00919 23.5452C7.89124 23.5833 7.82323 23.7914 7.79856 24.1895C7.76293 24.7684 7.75679 24.7775 7.40124 24.7775C7.04653 24.7775 7.03955 24.7673 7.00429 24.1999C6.97516 23.7316 6.924 23.6106 6.73347 23.5597C6.50586 23.4989 6.49852 23.3757 6.49852 19.6084C6.49852 15.8089 6.50406 15.7184 6.73925 15.6555C6.94435 15.6007 6.97997 15.5022 6.97997 14.9899V14.3886H7.40124H7.82251V14.9859ZM11.1927 14.7433V15.0981H9.86868H8.54469V14.7975V14.4969L9.83859 14.4642C10.5503 14.4463 11.1461 14.4219 11.1626 14.4101C11.1791 14.3983 11.1927 14.5482 11.1927 14.7433ZM12.7574 14.9899C12.7574 15.5022 12.793 15.6007 12.9981 15.6555C13.2333 15.7184 13.2388 15.8089 13.2388 19.6034C13.2388 23.4017 13.2335 23.488 12.9981 23.5399C12.7902 23.5856 12.7574 23.6782 12.7574 24.217V24.841L12.3662 24.8092C11.9796 24.7779 11.9747 24.7708 11.9389 24.1956C11.9109 23.7417 11.8513 23.5904 11.6681 23.5078C11.4418 23.4058 11.4334 23.2661 11.4334 19.6056C11.4334 15.9191 11.4404 15.8056 11.6741 15.6827C11.8637 15.5831 11.9148 15.4463 11.9148 15.0399C11.9148 14.4422 11.9561 14.3886 12.4164 14.3886C12.7525 14.3886 12.7574 14.3972 12.7574 14.9899ZM17.7697 14.9866C17.7818 15.3729 17.8438 15.5608 17.9803 15.6251C18.1527 15.7064 18.1737 16.1363 18.1737 19.5769C18.1737 22.8971 18.1483 23.4533 17.9926 23.5501C17.8771 23.6217 17.8007 23.8648 17.7819 24.22C17.7529 24.7689 17.7464 24.778 17.3613 24.8092L16.9701 24.841V24.278C16.9701 23.8247 16.9231 23.6902 16.7294 23.5884C16.4955 23.4653 16.4886 23.352 16.4886 19.6084C16.4886 15.8647 16.4955 15.7514 16.7294 15.6284C16.9231 15.5265 16.9701 15.392 16.9701 14.9388V14.3757L17.3613 14.4076C17.7472 14.4389 17.7527 14.4467 17.7697 14.9866ZM21.1603 14.718L21.1226 15.0474L19.8287 15.0762L18.5348 15.105V14.7468V14.3886H19.8664H21.1981L21.1603 14.718ZM6.2578 14.794V15.0981H4.9338H3.60981V14.794V14.49H4.9338H6.2578V14.794ZM16.1877 14.794C16.1877 15.0466 16.1838 15.0475 14.908 15.0761L13.6285 15.1047L13.5743 14.7941L13.5201 14.4837L14.854 14.5122C16.1874 14.5406 16.1877 14.5407 16.1877 14.794ZM51.1811 11.979V14.7663L50.6093 14.7641C49.4761 14.7597 48.5931 14.2169 48.1637 13.2609C47.9493 12.7839 47.9156 12.5366 47.961 11.7763C48.0166 10.8443 48.2154 10.3594 48.7616 9.82382C49.1055 9.48671 49.9566 9.19653 50.6093 9.194L51.1811 9.19177V11.979ZM55.1772 9.55391C55.9203 9.99379 56.2683 10.6342 56.3337 11.6825C56.4291 13.2141 55.9686 14.0955 54.8471 14.5279C54.3998 14.7003 54.0373 14.7685 53.6823 14.7469L53.167 14.7156L53.1349 12.082C53.1172 10.6335 53.1315 9.38525 53.1667 9.30802C53.2855 9.04723 54.5907 9.20687 55.1772 9.55391ZM5.77634 19.6128V23.5195L4.90371 23.4897L4.03108 23.4599L3.99955 19.583L3.96801 15.7062H4.87218H5.77634V19.6128ZM10.8316 19.6084V23.5105H9.92886H9.02614V19.6084V15.7062H9.92886H10.8316V19.6084ZM15.7665 19.6128V23.5195L14.8938 23.4897L14.0212 23.4599L13.9895 19.7101C13.9722 17.6478 13.984 15.9033 14.0159 15.8333C14.0548 15.7481 14.3527 15.7062 14.9202 15.7062H15.7665V19.6128ZM20.7013 19.6084V23.5105H19.8588H19.0163V19.6084V15.7062H19.8588H20.7013V19.6084ZM6.23529 24.4481L6.19761 24.7775L4.90371 24.8062L3.60981 24.835V24.4768V24.1187H4.94139H6.27308L6.23529 24.4481ZM11.1927 24.4734V24.8281H9.86868H8.54469V24.4734V24.1187H9.86868H11.1927V24.4734ZM16.1877 24.4734V24.7775L14.8938 24.8062L13.5999 24.835V24.4734V24.1118L14.8938 24.1406L16.1877 24.1693V24.4734ZM21.1603 24.4481L21.1226 24.7775L19.8287 24.8062L18.5348 24.835V24.4768V24.1187H19.8664H21.1981L21.1603 24.4481ZM22.6271 25.7403V26.0444H12.3963H2.16546V25.7403V25.4363H12.3963H22.6271V25.7403ZM23.9279 27.1846L23.891 27.6154L12.3662 27.6412L0.841468 27.6671V27.2105V26.7539H12.4032H23.965L23.9279 27.1846Z" fill="#3E9365"/>
</svg>
