<svg width="35" height="35" viewBox="0 0 35 35" fill="none" xmlns="http://www.w3.org/2000/svg">
<path fill-rule="evenodd" clip-rule="evenodd" d="M15.8659 0.0406376C9.91819 0.614314 4.6058 4.21543 1.91378 9.49843C0.961734 11.3669 0.399207 13.1685 0.0914027 15.3348C-0.0450338 16.2956 -0.0252396 18.7809 0.127498 19.852C0.398727 21.7541 0.959953 23.5565 1.82008 25.288C3.52656 28.7232 6.25269 31.4469 9.69737 33.1586C15.2815 35.9332 21.8809 35.5517 27.0893 32.1531C29.1258 30.8243 31.0559 28.8542 32.3734 26.7595C32.8742 25.9633 33.6303 24.4156 33.9737 23.4838C34.3197 22.5448 34.7232 20.9152 34.8729 19.852C35.0245 18.7751 35.045 16.2837 34.91 15.3348C34.5057 12.4927 33.6037 10.073 32.1063 7.8132C31.4694 6.85214 30.8334 6.07677 29.9473 5.18121C27.2156 2.42028 23.8175 0.707942 19.9319 0.134334C19.094 0.0106603 16.7393 -0.0436138 15.8659 0.0406376ZM18.8316 11.9812C18.9799 12.0565 19.1648 12.2052 19.2425 12.3117C19.3785 12.4978 19.3841 12.5926 19.3873 14.7756C19.3909 17.1757 19.4289 17.5315 19.702 17.7226C19.887 17.8521 20.0044 17.8063 20.365 17.4639C21.1717 16.6982 22.2254 15.0375 22.8547 13.5401C23.0504 13.0744 23.2842 12.6197 23.3742 12.5298C23.6027 12.3015 23.937 12.2733 26.0978 12.3008C27.7041 12.3212 27.9745 12.34 28.1671 12.4448C28.4716 12.6105 28.5106 12.8295 28.3335 13.3777C28.1219 14.033 27.7261 14.666 26.4109 16.4533C24.901 18.5052 24.7683 18.7548 24.9747 19.155C25.0171 19.2372 25.5672 19.828 26.1971 20.468C27.293 21.5812 28.0441 22.4898 28.3274 23.0448C28.5796 23.5387 28.4443 23.9922 27.9721 24.2362C27.6975 24.378 26.5202 24.4255 25.0298 24.3546C23.3706 24.2758 23.2815 24.2312 21.9119 22.7918C20.835 21.6601 20.586 21.4604 20.2518 21.4604C19.8367 21.4604 19.7111 21.718 19.4851 23.0345C19.3603 23.7612 19.3323 23.8381 19.1199 24.036C18.9151 24.2269 18.8284 24.2559 18.3321 24.2998C16.5219 24.46 14.5652 23.9257 13.0827 22.8666C11.5678 21.7844 9.95449 19.6955 8.35677 16.7473C7.64247 15.4292 6.54166 13.0534 6.54166 12.8298C6.54166 12.7308 6.60556 12.5687 6.68365 12.4695L6.82556 12.2892H8.53684C9.54648 12.2892 10.3698 12.3199 10.545 12.3639C10.9728 12.4715 11.2121 12.7636 11.5776 13.6238C12.3725 15.4947 13.8332 17.6667 14.3905 17.8065C14.755 17.8979 14.908 17.6333 15.0452 16.6736C15.1281 16.0937 15.0733 13.9746 14.9653 13.5837C14.8776 13.2662 14.5859 12.9957 14.1719 12.8476C13.9694 12.7752 13.8276 12.6803 13.8136 12.6078C13.7621 12.3407 14.1507 12.0017 14.658 11.8713C14.771 11.8422 15.6957 11.8243 16.7128 11.8314C18.4116 11.8433 18.584 11.8555 18.8316 11.9812Z" fill="#F2F3F7"/>
</svg>
