<svg width="35" height="35" viewBox="0 0 35 35" fill="none" xmlns="http://www.w3.org/2000/svg">
<path fill-rule="evenodd" clip-rule="evenodd" d="M15.8659 0.0406376C9.91819 0.614314 4.6058 4.21543 1.91378 9.49843C0.961734 11.3669 0.399207 13.1685 0.0914027 15.3348C-0.0450338 16.2956 -0.0252396 18.7809 0.127498 19.852C0.398727 21.7541 0.959953 23.5565 1.82008 25.288C3.52656 28.7232 6.25269 31.4469 9.69737 33.1586C15.2815 35.9332 21.8809 35.5517 27.0893 32.1531C29.1258 30.8243 31.0559 28.8542 32.3734 26.7595C32.8742 25.9633 33.6303 24.4156 33.9737 23.4838C34.3197 22.5448 34.7232 20.9152 34.8729 19.852C35.0245 18.7751 35.045 16.2837 34.91 15.3348C34.5057 12.4927 33.6037 10.073 32.1063 7.8132C31.4694 6.85214 30.8334 6.07677 29.9473 5.18121C27.2156 2.42028 23.8175 0.707942 19.9319 0.134334C19.094 0.0106603 16.7393 -0.0436138 15.8659 0.0406376ZM18.6742 8.42431C20.9982 9.02393 22.5333 11.4572 22.06 13.7912C21.4478 16.8104 18.2453 18.4168 15.4799 17.0916C13.0576 15.9308 12.1336 12.9314 13.4753 10.585C14.0707 9.54374 15.3315 8.62306 16.473 8.39591C16.6802 8.35471 16.9114 8.3068 16.9867 8.28948C17.2397 8.23131 18.2342 8.31077 18.6742 8.42431ZM17.0445 10.6494C16.888 10.6804 16.6345 10.7696 16.4814 10.8477C14.7386 11.7361 14.7681 14.1906 16.5314 15.0167C17.0549 15.262 17.9125 15.2748 18.4136 15.0447C19.0788 14.7392 19.5363 14.1983 19.728 13.4905C19.8791 12.9328 19.8234 12.4365 19.5479 11.8857C19.2108 11.2115 18.6464 10.7945 17.8795 10.6528C17.4321 10.5702 17.4451 10.5702 17.0445 10.6494ZM13.2413 17.898C14.8605 18.6942 15.933 18.9622 17.5004 18.9622C19.0803 18.9622 20.1287 18.7 21.7647 17.8955C22.4762 17.5455 22.6396 17.491 22.9721 17.4923C24.3377 17.4976 25.055 19.0496 24.1697 20.0833C23.8596 20.4452 22.5352 21.1119 21.3485 21.5033C20.9084 21.6484 20.5348 21.7759 20.5182 21.7865C20.5016 21.7971 21.0318 22.3522 21.6965 23.0201C23.0075 24.3375 23.1305 24.5211 23.1305 25.1597C23.1305 25.766 22.8127 26.2603 22.2264 26.5659C21.9124 26.7296 21.2512 26.7287 20.925 26.5641C20.7932 26.4976 19.9687 25.7304 19.0929 24.8592L17.5004 23.2752L15.908 24.8592C15.0322 25.7304 14.2077 26.4976 14.0758 26.5641C13.7496 26.7287 13.0884 26.7296 12.7745 26.5659C12.1882 26.2603 11.8704 25.766 11.8704 25.1597C11.8704 24.5211 11.9934 24.3375 13.3044 23.0201C13.969 22.3522 14.4992 21.7971 14.4827 21.7865C14.4661 21.7759 14.0925 21.6484 13.6524 21.5033C12.4657 21.1119 11.1413 20.4452 10.8312 20.0833C9.94579 19.0496 10.6632 17.4976 12.0288 17.4923C12.3615 17.491 12.5247 17.5456 13.2413 17.898Z" fill="#F2F3F7"/>
</svg>
