<svg width="35" height="35" viewBox="0 0 35 35" fill="none" xmlns="http://www.w3.org/2000/svg">
<path fill-rule="evenodd" clip-rule="evenodd" d="M17.5 35C27.165 35 35 27.165 35 17.5C35 7.83496 27.165 0 17.5 0C7.83502 0 0 7.83496 0 17.5C0 27.165 7.83502 35 17.5 35ZM15.3266 18.001C15.3266 16.5322 16.5246 15.335 17.9926 15.335C19.4606 15.335 20.6586 16.5322 20.6586 18.001C20.6586 19.4688 19.4606 20.667 17.9926 20.667C16.5246 20.667 15.3266 19.4688 15.3266 18.001ZM25.9887 16.8174C25.9899 17.2109 25.9886 17.6055 25.9886 18.001C25.9886 19.1045 26.0006 20.1982 25.9366 21.3008C25.8746 22.5811 25.5846 23.7148 24.6466 24.6523C23.7106 25.5889 22.5746 25.8809 21.2946 25.9424C20.1926 26.0049 19.0986 25.9951 17.9946 25.9951H17.6011C16.6318 25.9961 15.6671 25.9971 14.6946 25.9424C13.4146 25.8809 12.2806 25.5908 11.3426 24.6523C10.4066 23.7168 10.1146 22.5811 10.0526 21.3008C9.9906 20.1982 10.0006 19.1025 10.0006 18.001L10.0003 17.5986C9.99921 16.6318 9.99817 15.6699 10.0526 14.7002C10.1146 13.4209 10.4046 12.2871 11.3426 11.3486C12.2786 10.4131 13.4146 10.1211 14.6946 10.0586C15.6637 10.0049 16.6266 10.0059 17.5956 10.0068H17.9946C19.0966 10.0068 20.1906 9.99707 21.2946 10.0586C22.5746 10.1211 23.7086 10.4111 24.6466 11.3486C25.5826 12.2842 25.8746 13.4209 25.9366 14.7002C25.9764 15.4072 25.9865 16.1113 25.9887 16.8174ZM13.8906 18.001C13.8906 20.2705 15.7226 22.1025 17.9926 22.1025C20.2626 22.1025 22.0946 20.2705 22.0946 18.001C22.0946 15.7305 20.2626 13.8984 17.9926 13.8984C15.7226 13.8984 13.8906 15.7305 13.8906 18.001ZM21.3046 13.7305C21.3046 14.2607 21.7326 14.6885 22.2626 14.6885C22.3885 14.6885 22.5131 14.6641 22.6294 14.6162C22.6836 14.5938 22.7355 14.5664 22.7845 14.5342C22.8406 14.498 22.8929 14.4561 22.9404 14.4082C23.0294 14.3193 23.0999 14.2139 23.148 14.0977C23.1961 13.9814 23.2208 13.8564 23.2206 13.7305C23.2206 13.2002 22.7926 12.7725 22.2626 12.7725C21.7326 12.7725 21.3046 13.2002 21.3046 13.7305Z" fill="#F2F3F7"/>
</svg>
