<svg width="35" height="35" viewBox="0 0 35 35" fill="none" xmlns="http://www.w3.org/2000/svg">
<path fill-rule="evenodd" clip-rule="evenodd" d="M15.8659 0.0406376C9.91819 0.614314 4.6058 4.21543 1.91378 9.49843C0.961734 11.3669 0.399207 13.1685 0.0914027 15.3348C-0.0450338 16.2956 -0.0252396 18.7809 0.127498 19.852C0.398727 21.7541 0.959953 23.5565 1.82008 25.288C3.52656 28.7232 6.25269 31.4469 9.69737 33.1586C15.2815 35.9332 21.8809 35.5517 27.0893 32.1531C29.1258 30.8243 31.0559 28.8542 32.3734 26.7595C32.8742 25.9633 33.6303 24.4156 33.9737 23.4838C34.3197 22.5448 34.7232 20.9152 34.8729 19.852C35.0245 18.7751 35.045 16.2837 34.91 15.3348C34.5057 12.4927 33.6037 10.073 32.1063 7.8132C31.4694 6.85214 30.8334 6.07677 29.9473 5.18121C27.2156 2.42028 23.8175 0.707942 19.9319 0.134334C19.094 0.0106603 16.7393 -0.0436138 15.8659 0.0406376ZM20.925 8.47181C21.7595 8.69616 22.2508 8.91654 22.9445 9.37777C24.1888 10.205 25.1313 11.5121 25.5902 13.0466C25.7305 13.5158 25.7446 13.7285 25.7714 15.7797C25.7912 17.2952 25.7747 18.1646 25.7196 18.5079C25.3224 20.9795 23.4601 23.0516 21.0278 23.7284C20.5252 23.8683 20.2985 23.8831 18.2881 23.9067L16.0963 23.9326L14.6885 25.3315C13.9142 26.1008 13.2573 26.7304 13.2286 26.7304C13.1999 26.7304 13.1168 26.6985 13.0439 26.6595C12.9187 26.5925 12.9114 26.4998 12.9106 24.9656L12.9098 23.3425L12.5034 23.1194C11.1257 22.3633 9.95216 20.9162 9.49286 19.4071C9.22984 18.543 9.20033 18.1406 9.22868 15.8043C9.25546 13.5956 9.25923 13.5446 9.44018 12.9543C10.2159 10.4243 12.2566 8.67953 14.8616 8.31932C15.0886 8.28791 16.3994 8.27004 17.7744 8.27956C20.2127 8.29639 20.2904 8.30118 20.925 8.47181ZM17.927 10.8546C17.7314 10.9331 17.6743 11.0757 17.7682 11.251C17.8288 11.3641 17.9421 11.3953 18.4413 11.436C19.2082 11.4986 19.7673 11.6712 20.2837 12.0047C21.0061 12.4713 21.483 13.0502 21.8 13.8456C21.9699 14.2716 21.9845 14.3858 21.9856 15.2883C21.9865 16.1305 22.0027 16.2774 22.1006 16.3321C22.2473 16.4142 22.4158 16.3483 22.5102 16.1721C22.6458 15.9187 22.6635 14.6998 22.5391 14.1713C22.2495 12.941 21.3626 11.8215 20.24 11.2696C19.4508 10.8816 18.3514 10.6843 17.927 10.8546ZM13.8361 11.9398C13.4925 12.1558 12.5814 13.1284 12.4691 13.3992C12.2274 13.9816 12.3968 14.8493 12.9805 16.0193C13.5234 17.1074 14.1076 17.8789 15.2348 18.9965C16.5534 20.3038 17.7467 21.1052 18.8946 21.4544C19.4363 21.6192 20.1421 21.6411 20.4649 21.503C20.5861 21.4512 20.9677 21.1193 21.3129 20.7655C22.2997 19.754 22.2814 19.5662 21.0791 18.3605C20.6365 17.9167 20.2281 17.5244 20.1716 17.4889C19.9972 17.3793 19.5329 17.4155 19.3011 17.5568C19.1802 17.6304 19.0214 17.8074 18.9482 17.9501C18.4632 18.8952 17.5414 18.7697 16.3697 17.5991C15.6885 16.9185 15.3518 16.3274 15.3465 15.8025C15.3423 15.3873 15.496 15.1787 15.9936 14.9241C16.1631 14.8373 16.3557 14.674 16.4217 14.561C16.5669 14.3121 16.5765 13.9225 16.4436 13.6717C16.3269 13.4517 14.8599 11.9948 14.6454 11.886C14.4198 11.7716 14.0663 11.7951 13.8361 11.9398ZM17.938 12.0825C17.7537 12.1569 17.6867 12.3307 17.7771 12.4995C17.8515 12.6385 17.899 12.6534 18.2015 12.6336C18.484 12.6151 19.1445 12.7669 19.4451 12.9195C19.8603 13.1302 20.3341 13.6159 20.5478 14.0497C20.6974 14.3533 20.7498 14.5722 20.7736 14.9926C20.8077 15.5933 20.8617 15.7113 21.1022 15.7113C21.3202 15.7113 21.4045 15.5235 21.4045 15.0375C21.4045 13.9636 20.7252 12.8818 19.7354 12.3795C19.1779 12.0965 18.2734 11.9471 17.938 12.0825ZM18.0848 13.4056C17.9429 13.6219 18.0422 13.8632 18.2734 13.8638C18.8394 13.8651 19.4434 14.3199 19.5221 14.8039C19.5905 15.2244 19.674 15.3691 19.8483 15.3691C20.1795 15.3691 20.2638 15.0314 20.0697 14.4817C19.845 13.8452 19.2366 13.3717 18.5177 13.274C18.2286 13.2347 18.1889 13.2468 18.0848 13.4056Z" fill="#F2F3F7"/>
</svg>
