<svg width="35" height="35" viewBox="0 0 35 35" fill="none" xmlns="http://www.w3.org/2000/svg">
<path fill-rule="evenodd" clip-rule="evenodd" d="M16.2331 0.0113148C13.587 0.268831 11.5916 0.839843 9.42753 1.95867C6.12374 3.66677 3.45599 6.38483 1.80653 9.72351C1.17283 11.0062 0.874174 11.7925 0.542966 13.0504C0.12541 14.6359 0.0038373 15.5998 6.81212e-05 17.3539C-0.0017822 18.2272 0.0342648 19.175 0.0834011 19.5438C0.457029 22.3477 1.33765 24.7642 2.81043 27.0265L3.30132 27.7806L2.21086 30.9951C1.61108 32.7631 1.12986 34.2191 1.14144 34.2307C1.15309 34.2423 2.65316 33.7757 4.47497 33.1937C6.29685 32.6117 7.81178 32.1356 7.84159 32.1356C7.87141 32.1356 8.15265 32.295 8.46659 32.4899C8.78053 32.6848 9.43828 33.0358 9.92828 33.2699C14.359 35.3875 19.424 35.5687 23.9608 33.7721C29.1012 31.7364 33.0495 27.2831 34.4588 21.9311C34.8905 20.2918 35 19.3932 35 17.4907C35 15.5883 34.8905 14.6897 34.4588 13.0504C32.8055 6.77182 27.7661 1.8914 21.4071 0.410489C20.3387 0.161664 19.227 0.0356088 17.8778 0.0103567C17.124 -0.0038091 16.3838 -0.0033985 16.2331 0.0113148ZM12.0535 8.13187C12.167 8.19066 12.326 8.35729 12.4069 8.5021C12.6112 8.86781 14.2772 12.8748 14.3257 13.1172C14.3878 13.4273 14.0842 13.9544 13.403 14.7192C12.6921 15.5172 12.5394 15.7735 12.6026 16.0612C12.7175 16.5834 14.3024 18.6824 15.2789 19.6054C16.7942 21.0377 19.0846 22.3979 20.105 22.4714C20.6298 22.5092 20.8211 22.3609 21.6238 21.294C21.9879 20.8101 22.3762 20.3237 22.4868 20.2133C22.7511 19.9494 23.1435 19.8935 23.5835 20.0569C24.148 20.2668 27.5987 21.9448 27.841 22.1274L28.073 22.3021L28.0347 23.0272C27.9364 24.8888 27.2826 25.8554 25.5532 26.6958C23.909 27.4949 22.6221 27.473 20.1025 26.6034C16.7222 25.4367 14.9279 24.3222 12.4967 21.8791C11.2801 20.6567 10.4156 19.6232 9.42677 18.2093C7.79739 15.8793 7.17253 14.0802 7.35852 12.2542C7.50765 10.7901 8.01998 9.70934 9.05472 8.67613C9.55527 8.17622 10.2103 7.97044 11.1961 8.00329C11.6143 8.01718 11.9209 8.06317 12.0535 8.13187Z" fill="#F2F3F7"/>
</svg>
