<svg width="15" height="15" viewBox="0 0 15 15" fill="none" xmlns="http://www.w3.org/2000/svg">
<path d="M13.8173 14.7223C6.11569 14.7331 0.270204 8.81811 0.278329 1.18332C0.278329 0.684082 0.682773 0.277832 1.18111 0.277832H3.56444C4.01132 0.277832 4.39138 0.606443 4.45729 1.0488C4.61446 2.10962 4.92305 3.14239 5.37361 4.11554L5.46659 4.31596C5.52905 4.45082 5.54249 4.60326 5.50459 4.74697C5.46668 4.89069 5.37981 5.01667 5.25895 5.10318C4.52048 5.6304 4.23882 6.69117 4.81388 7.51811C5.5352 8.55631 6.4443 9.46631 7.4825 10.1876C8.31034 10.7618 9.37111 10.4801 9.89743 9.74256C9.98385 9.62134 10.1099 9.53414 10.2539 9.49606C10.3978 9.45798 10.5505 9.4714 10.6856 9.53401L10.8851 9.6261C11.8583 10.0775 12.891 10.3862 13.9518 10.5433C14.3942 10.6092 14.7228 10.9893 14.7228 11.4371V13.8195C14.7228 13.9381 14.6994 14.0556 14.654 14.1652C14.6085 14.2748 14.542 14.3743 14.458 14.4582C14.3741 14.542 14.2745 14.6085 14.1648 14.6538C14.0552 14.6991 13.9377 14.7224 13.8191 14.7223H13.8173Z" fill="url(#paint0_linear_24_29)"/>
<defs>
<linearGradient id="paint0_linear_24_29" x1="7.50055" y1="0.277832" x2="7.50055" y2="14.7223" gradientUnits="userSpaceOnUse">
<stop stop-color="#08A652"/>
<stop offset="1" stop-color="#08A652"/>
</linearGradient>
</defs>
</svg>
