<svg width="183" height="53" viewBox="0 0 183 53" fill="none" xmlns="http://www.w3.org/2000/svg">
<path fill-rule="evenodd" clip-rule="evenodd" d="M45.282 0.179209C45.2434 0.280869 45.2288 12.0666 45.2496 26.37L45.2876 52.376L45.6282 52.4243C46.447 52.5403 46.3958 54.2864 46.3958 26.2337C46.3958 6.29832 46.3551 0.308354 46.2185 0.171822C45.9858 -0.0609022 45.3714 -0.0560279 45.282 0.179209ZM13.2972 11.8778C12.3626 12.3072 11.199 12.8427 10.7114 13.0677C9.04051 13.839 3.02824 16.5855 1.82398 17.1276C0.0772923 17.914 -0.082289 18.0372 0.130636 18.4352C0.269975 18.6955 0.435911 18.7602 0.964306 18.7602C1.38676 18.7602 1.62864 18.8267 1.63677 18.9449C1.64386 19.0466 1.66041 19.5144 1.67371 19.9847C1.70208 20.9879 1.86506 21.1525 2.76921 21.091L3.3972 21.0485V21.8239C3.3972 22.4395 3.45823 22.6377 3.69272 22.7841C3.97983 22.9635 3.98825 23.1287 3.98825 28.5891C3.98825 34.0267 3.97864 34.2177 3.69272 34.4626C3.4702 34.653 3.3972 34.8985 3.3972 35.4558V36.1961H2.6547C1.99376 36.1961 1.89654 36.2376 1.76813 36.5751C1.68893 36.7836 1.62406 37.1739 1.62406 37.4425C1.62406 37.9135 1.59998 37.9335 0.940813 38.0078C0.565055 38.0502 0.200378 38.1752 0.130487 38.2856C-0.0676616 38.5983 -0.0302759 40.9842 0.175999 41.1905C0.311497 41.326 3.83723 41.3678 15.1443 41.3678C26.4513 41.3678 29.977 41.326 30.1125 41.1905C30.226 41.077 30.2898 40.4979 30.2898 39.5809C30.2898 37.9886 30.2774 37.9693 29.2508 37.9693H28.6792L28.6349 37.1196L28.5906 36.27L27.7409 36.2257L26.8913 36.1813V35.2883C26.8913 34.5196 26.8502 34.3846 26.5958 34.3181C26.3068 34.2424 26.3003 34.1165 26.3003 28.5791C26.3003 23.0472 26.3071 22.9153 26.5958 22.8237C26.8471 22.7439 26.8913 22.6001 26.8913 21.8607V20.9914L27.7409 20.9471L28.5906 20.9028L28.6331 19.7895L28.6757 18.6763L29.3446 18.6472C30.1366 18.6126 30.2898 18.537 30.2898 18.1798C30.2898 17.9963 30.023 17.7939 29.4402 17.5356C28.9728 17.3283 27.6597 16.7301 26.5219 16.2063C25.3841 15.6824 24.0543 15.0721 23.5667 14.8503C23.0791 14.6284 21.0178 13.6886 18.9861 12.7617C16.9543 11.8348 15.2255 11.0811 15.1443 11.0868C15.063 11.0924 14.2318 11.4484 13.2972 11.8778ZM16.6621 12.716C17.3713 13.049 19.5143 14.0401 21.4241 14.9186C26.955 17.4629 27.4823 17.7134 27.4823 17.7958C27.4823 17.8387 21.9635 17.8737 15.2181 17.8737C8.47281 17.8737 2.9551 17.8239 2.95643 17.7628C2.95968 17.6213 14.7604 12.15 15.1106 12.1277C15.2545 12.1185 15.9527 12.3833 16.6621 12.716ZM27.7779 19.4252V20.0901H15.2181H2.65839V19.4252V18.7602H15.2181H27.7779V19.4252ZM62.8317 11.4056C62.8317 12.06 62.8238 12.0705 62.3417 12.0705C60.8867 12.0705 59.1087 12.6054 58.0754 13.3538C55.4731 15.2385 55.5888 19.8561 58.2847 21.7069C59.1725 22.3163 60.1539 22.6194 61.7604 22.78L62.8317 22.8871V23.543V24.1989L64.0415 24.1559L65.2514 24.1131L65.2606 23.5238L65.2697 22.9347L66.5996 22.7628C68.6651 22.4961 69.8873 21.936 70.7879 20.8434C72.1443 19.1978 72.2063 15.9556 70.9135 14.2608C69.9764 13.032 68.7074 12.4219 66.5257 12.151L65.2697 11.9952V11.3678V10.7402L64.0507 10.7405L62.8317 10.7407V11.4056ZM79.7892 11.1795C77.0759 11.6724 75.2747 13.2508 74.7392 15.605C74.0496 18.6369 75.0031 21.3025 77.2777 22.7021C79.795 24.251 84.2012 23.9879 86.4666 22.1536C86.8202 21.8674 86.8224 21.8523 86.5682 21.4645C86.1818 20.8748 86.0066 20.8727 85.1527 21.4473C84.1671 22.1106 82.9728 22.4666 81.7452 22.4632C80.0323 22.4583 78.9921 21.9893 78.1002 20.8199C77.4748 20 77.2975 19.3862 77.205 17.7199C77.0175 14.3407 78.6371 12.366 81.5961 12.366C83.0069 12.366 83.9898 12.6953 85.0999 13.5396L85.8687 14.1243L86.2451 13.6771C86.452 13.4311 86.6213 13.174 86.6213 13.1057C86.6213 12.8483 84.78 11.7655 83.836 11.4679C82.7365 11.1213 80.8497 10.9868 79.7892 11.1795ZM94.1571 11.1306C93.8727 11.1671 93.3075 11.3029 92.9012 11.4323C90.0485 12.3412 88.6899 14.263 88.6899 17.3899C88.6899 20.1557 89.7819 22.0033 92.0153 23.016C94.4637 24.1261 98.0115 23.89 100.057 22.4808C100.841 21.9407 100.914 21.7358 100.496 21.2376C100.215 20.9025 100.165 20.891 99.8482 21.0899C99.6592 21.2085 99.2045 21.4916 98.8375 21.7191C97.8787 22.3134 96.1719 22.6358 95.0402 22.4364C93.9302 22.2408 93.3221 21.9527 92.6176 21.2882C91.9213 20.6315 91.5558 19.8177 91.344 18.4531C90.9299 15.783 92.066 13.2476 93.9671 12.5998C94.8478 12.2997 96.3944 12.3009 97.4179 12.6025C97.8594 12.7325 98.6021 13.0982 99.0686 13.4151C99.5349 13.7321 99.9671 13.9893 100.029 13.9868C100.091 13.9842 100.268 13.8085 100.423 13.5962C100.618 13.3281 100.662 13.1431 100.566 12.9903C100.349 12.6475 98.7203 11.7144 97.8364 11.427C97.0281 11.1641 95.1034 11.0091 94.1571 11.1306ZM105.48 12.6985C105.016 19.1526 104.817 21.0628 104.568 21.4427C104.246 21.9335 103.623 22.2661 103.026 22.2661H102.571L102.612 24.2239L102.653 26.1818H103.612H104.572L104.677 25.5168C104.735 25.1511 104.823 24.536 104.872 24.15L104.962 23.4482H109.598H114.235L114.33 24.15C114.383 24.536 114.471 25.1511 114.527 25.5168L114.629 26.1818H115.586H116.543L116.584 24.2322L116.625 22.2826L115.919 22.2374L115.213 22.1922L115.174 16.7619L115.136 11.3317H110.357H105.578L105.48 12.6985ZM112.627 17.4665V22.2714L109.45 22.26C107.703 22.2537 106.274 22.1977 106.274 22.1353C106.274 22.0731 106.441 21.8649 106.646 21.6727C107.172 21.1781 107.264 20.6887 107.532 16.9466C107.663 15.1181 107.802 13.406 107.841 13.1418L107.912 12.6616H110.27H112.627V17.4665ZM9.60319 21.8474C9.60319 22.4852 9.66244 22.7409 9.82483 22.8033C10.1529 22.929 10.1603 34.2 9.83237 34.3257C9.68756 34.3813 9.60408 34.6847 9.57378 35.2651C9.53005 36.1091 9.52251 36.1222 9.08602 36.1222C8.65057 36.1222 8.642 36.1075 8.59871 35.2803C8.56295 34.5975 8.50015 34.4211 8.26624 34.3469C7.98682 34.2582 7.97781 34.0787 7.97781 28.5864C7.97781 23.0472 7.98461 22.9153 8.27334 22.8237C8.52512 22.7437 8.56886 22.6001 8.56886 21.8533V20.9767H9.08602H9.60319V21.8474ZM13.7405 21.4938V22.011H12.1151H10.4898V21.5727V21.1345L12.0782 21.0869C12.9519 21.0607 13.6833 21.0253 13.7036 21.008C13.7238 20.9908 13.7405 21.2094 13.7405 21.4938ZM15.6614 21.8533C15.6614 22.6001 15.7052 22.7437 15.9569 22.8237C16.2457 22.9153 16.2525 23.0472 16.2525 28.5791C16.2525 34.1165 16.246 34.2424 15.9569 34.3181C15.7018 34.3847 15.6614 34.5196 15.6614 35.3051V36.2149L15.1812 36.1685C14.7066 36.1228 14.7005 36.1125 14.6566 35.2739C14.6222 34.6123 14.5491 34.3917 14.3242 34.2712C14.0464 34.1226 14.036 33.9188 14.036 28.5824C14.036 23.2079 14.0446 23.0425 14.3316 22.8633C14.5643 22.718 14.6271 22.5187 14.6271 21.9262C14.6271 21.0548 14.6778 20.9767 15.2428 20.9767C15.6554 20.9767 15.6614 20.9892 15.6614 21.8533ZM21.8147 21.8485C21.8296 22.4116 21.9057 22.6855 22.0732 22.7794C22.2848 22.8979 22.3107 23.5245 22.3107 28.5404C22.3107 33.381 22.2795 34.1917 22.0883 34.3328C21.9466 34.4373 21.8528 34.7916 21.8297 35.3095C21.7941 36.1098 21.7861 36.123 21.3133 36.1685L20.8331 36.2149V35.3941C20.8331 34.7333 20.7754 34.5372 20.5376 34.3887C20.2505 34.2093 20.242 34.0441 20.242 28.5864C20.242 23.1287 20.2505 22.9635 20.5376 22.7841C20.7754 22.6356 20.8331 22.4395 20.8331 21.7787V20.9579L21.3133 21.0043C21.787 21.05 21.7938 21.0613 21.8147 21.8485ZM25.9771 21.4569L25.9309 21.9371L24.3424 21.9791L22.754 22.021V21.4989V20.9767H24.3887H26.0235L25.9771 21.4569ZM7.68229 21.5677V22.011H6.05691H4.43153V21.5677V21.1244H6.05691H7.68229V21.5677ZM19.8726 21.5677C19.8726 21.9359 19.8678 21.9373 18.3016 21.9789L16.7308 22.0206L16.6643 21.5679L16.5978 21.1153L18.2353 21.1568C19.8722 21.1983 19.8726 21.1985 19.8726 21.5677ZM62.8317 17.4638V21.5273L62.1298 21.524C60.7386 21.5177 59.6546 20.7264 59.1274 19.3326C58.8643 18.6372 58.8229 18.2767 58.8786 17.1683C58.9469 15.8095 59.191 15.1026 59.8615 14.3218C60.2837 13.8304 61.3285 13.4073 62.1298 13.4036L62.8317 13.4004V17.4638ZM67.7375 13.9283C68.6498 14.5696 69.077 15.5033 69.1572 17.0315C69.2744 19.2644 68.709 20.5494 67.3322 21.1797C66.7831 21.4311 66.338 21.5305 65.9023 21.499L65.2697 21.4534L65.2303 17.6139C65.2085 15.5023 65.2261 13.6824 65.2693 13.5698C65.4151 13.1897 67.0175 13.4224 67.7375 13.9283ZM7.09124 28.5929V34.2882L6.01997 34.2448L4.9487 34.2013L4.90999 28.5494L4.87127 22.8976H5.98126H7.09124V28.5929ZM13.2972 28.5864V34.2752H12.189H11.0808V28.5864V22.8976H12.189H13.2972V28.5864ZM19.3555 28.5929V34.2882L18.2842 34.2448L17.2129 34.2013L17.1741 28.7347C17.1528 25.7281 17.1673 23.1848 17.2064 23.0829C17.2541 22.9586 17.6199 22.8976 18.3165 22.8976H19.3555V28.5929ZM25.4137 28.5864V34.2752H24.3794H23.345V28.5864V22.8976H24.3794H25.4137V28.5864ZM7.65466 35.642L7.60841 36.1222L6.01997 36.1642L4.43153 36.2062V35.684V35.1618H6.06622H7.70106L7.65466 35.642ZM13.7405 35.6789V36.1961H12.1151H10.4898V35.6789V35.1618H12.1151H13.7405V35.6789ZM19.8726 35.6789V36.1222L18.2842 36.1642L16.6957 36.2062V35.6789V35.1517L18.2842 35.1937L19.8726 35.2357V35.6789ZM25.9771 35.642L25.9309 36.1222L24.3424 36.1642L22.754 36.2062V35.684V35.1618H24.3887H26.0235L25.9771 35.642ZM27.7779 37.526V37.9693H15.2181H2.65839V37.526V37.0827H15.2181H27.7779V37.526ZM29.3747 39.6316L29.3294 40.2596L15.1812 40.2972L1.03302 40.3349V39.6693V39.0036H15.2266H29.4202L29.3747 39.6316Z" fill="#202924"/>
<path d="M60.146 34.736C60.51 35.024 60.692 35.412 60.692 35.9C60.692 36.388 60.51 36.776 60.146 37.064C59.786 37.352 59.304 37.516 58.7 37.556V38.03H58.154V37.556C57.554 37.516 57.072 37.352 56.708 37.064C56.348 36.776 56.168 36.388 56.168 35.9C56.168 35.412 56.348 35.024 56.708 34.736C57.072 34.448 57.554 34.284 58.154 34.244V33.77H58.7V34.244C59.304 34.284 59.786 34.448 60.146 34.736ZM58.7 37.046C59.152 37.014 59.504 36.904 59.756 36.716C60.008 36.524 60.134 36.252 60.134 35.9C60.134 35.548 60.008 35.278 59.756 35.09C59.504 34.898 59.152 34.786 58.7 34.754V37.046ZM56.72 35.9C56.72 36.248 56.846 36.518 57.098 36.71C57.35 36.898 57.702 37.008 58.154 37.04V34.754C57.702 34.786 57.35 34.898 57.098 35.09C56.846 35.278 56.72 35.548 56.72 35.9ZM61.8596 37.472H63.8096V38H61.3016V33.8H63.7796V34.328H61.8596V35.618H63.6296V36.14H61.8596V37.472ZM67.5612 37.472H68.0112V38.804H67.4532V38H64.6812V38.804H64.1232V37.472H64.4892C64.7492 37.148 64.8792 36.656 64.8792 35.996V33.8H67.5612V37.472ZM65.1192 37.472H67.0032V34.322H65.4372V36.008C65.4372 36.644 65.3312 37.132 65.1192 37.472ZM69.2131 37.472H71.1631V38H68.6551V33.8H71.1331V34.328H69.2131V35.618H70.9831V36.14H69.2131V37.472ZM73.3607 33.8C73.7487 33.8 74.0707 33.93 74.3267 34.19C74.5867 34.446 74.7167 34.766 74.7167 35.15C74.7167 35.53 74.5867 35.85 74.3267 36.11C74.0707 36.37 73.7487 36.5 73.3607 36.5H72.3947V38H71.8367V33.8H73.3607ZM73.3607 35.978C73.5927 35.978 73.7847 35.9 73.9367 35.744C74.0887 35.584 74.1647 35.386 74.1647 35.15C74.1647 34.91 74.0887 34.712 73.9367 34.556C73.7847 34.4 73.5927 34.322 73.3607 34.322H72.3947V35.978H73.3607ZM77.714 38L77.372 37.058H75.482L75.14 38H74.546L76.112 33.8H76.742L78.308 38H77.714ZM75.674 36.536H77.18L76.424 34.466L75.674 36.536ZM78.4551 38V37.496C78.7311 37.536 78.9371 37.46 79.0731 37.268C79.2131 37.072 79.2831 36.71 79.2831 36.182V33.8H82.0551V38H81.4971V34.328H79.8411V36.182C79.8411 36.558 79.8051 36.874 79.7331 37.13C79.6651 37.382 79.5651 37.572 79.4331 37.7C79.3051 37.828 79.1611 37.916 79.0011 37.964C78.8451 38.008 78.6631 38.02 78.4551 38ZM84.4818 35.3C84.8698 35.3 85.1918 35.43 85.4478 35.69C85.7078 35.95 85.8378 36.27 85.8378 36.65C85.8378 37.034 85.7078 37.356 85.4478 37.616C85.1918 37.872 84.8698 38 84.4818 38H82.9578V33.8H83.5158V35.3H84.4818ZM84.4818 37.478C84.7138 37.478 84.9058 37.4 85.0578 37.244C85.2098 37.088 85.2858 36.89 85.2858 36.65C85.2858 36.414 85.2098 36.218 85.0578 36.062C84.9058 35.902 84.7138 35.822 84.4818 35.822H83.5158V37.478H84.4818ZM89.0949 33.8H89.6469V38H89.0949V36.11H87.0549V38H86.4969V33.8H87.0549V35.582H89.0949V33.8ZM93.3117 38L92.9697 37.058H91.0797L90.7377 38H90.1437L91.7097 33.8H92.3397L93.9057 38H93.3117ZM91.2717 36.536H92.7777L92.0217 34.466L91.2717 36.536ZM97.2448 33.8V38H96.6928V36.392H95.8588L94.7728 38H94.1428L95.2588 36.356C94.9708 36.288 94.7328 36.136 94.5448 35.9C94.3568 35.664 94.2628 35.398 94.2628 35.102C94.2628 34.742 94.3888 34.436 94.6408 34.184C94.8968 33.928 95.2048 33.8 95.5648 33.8H97.2448ZM95.5648 35.888H96.6928V34.322H95.5648C95.3608 34.322 95.1848 34.398 95.0368 34.55C94.8888 34.702 94.8148 34.886 94.8148 35.102C94.8148 35.318 94.8888 35.504 95.0368 35.66C95.1848 35.812 95.3608 35.888 95.5648 35.888ZM101.619 38.078C100.983 38.078 100.457 37.868 100.041 37.448C99.6293 37.028 99.4233 36.512 99.4233 35.9C99.4233 35.288 99.6293 34.772 100.041 34.352C100.457 33.932 100.983 33.722 101.619 33.722C102.003 33.722 102.355 33.814 102.675 33.998C102.999 34.182 103.251 34.43 103.431 34.742L102.945 35.024C102.825 34.792 102.645 34.608 102.405 34.472C102.169 34.332 101.907 34.262 101.619 34.262C101.135 34.262 100.739 34.418 100.431 34.73C100.127 35.042 99.9753 35.432 99.9753 35.9C99.9753 36.364 100.127 36.752 100.431 37.064C100.739 37.376 101.135 37.532 101.619 37.532C101.907 37.532 102.169 37.464 102.405 37.328C102.645 37.188 102.825 37.004 102.945 36.776L103.431 37.052C103.255 37.364 103.005 37.614 102.681 37.802C102.357 37.986 102.003 38.078 101.619 38.078ZM103.609 38V37.496C103.885 37.536 104.091 37.46 104.227 37.268C104.367 37.072 104.437 36.71 104.437 36.182V33.8H107.209V38H106.651V34.328H104.995V36.182C104.995 36.558 104.959 36.874 104.887 37.13C104.819 37.382 104.719 37.572 104.587 37.7C104.459 37.828 104.315 37.916 104.155 37.964C103.999 38.008 103.817 38.02 103.609 38ZM110.518 33.8H111.082L109.732 37.004C109.58 37.364 109.386 37.626 109.15 37.79C108.914 37.95 108.626 38.02 108.286 38V37.484C108.518 37.508 108.706 37.474 108.85 37.382C108.994 37.29 109.114 37.132 109.21 36.908L109.252 36.812L107.83 33.8H108.394L109.51 36.2L110.518 33.8ZM116.184 38H115.548L113.958 35.984V38H113.406V35.984L111.816 38H111.186L112.866 35.852L111.246 33.8H111.876L113.406 35.726V33.8H113.958V35.726L115.488 33.8H116.124L114.498 35.852L116.184 38ZM118.315 35.45C118.679 35.45 118.987 35.574 119.239 35.822C119.491 36.066 119.617 36.366 119.617 36.722C119.617 37.086 119.491 37.39 119.239 37.634C118.991 37.878 118.683 38 118.315 38H116.737V33.8H119.257V34.328H117.295V35.45H118.315ZM118.315 37.478C118.523 37.478 118.699 37.406 118.843 37.262C118.991 37.118 119.065 36.938 119.065 36.722C119.065 36.51 118.991 36.332 118.843 36.188C118.699 36.044 118.523 35.972 118.315 35.972H117.295V37.478H118.315ZM122.925 38L122.583 37.058H120.693L120.351 38H119.757L121.323 33.8H121.953L123.519 38H122.925ZM120.885 36.536H122.391L121.635 34.466L120.885 36.536ZM127.488 38.078C126.852 38.078 126.326 37.868 125.91 37.448C125.498 37.028 125.292 36.512 125.292 35.9C125.292 35.288 125.498 34.772 125.91 34.352C126.326 33.932 126.852 33.722 127.488 33.722C127.872 33.722 128.224 33.814 128.544 33.998C128.868 34.182 129.12 34.43 129.3 34.742L128.814 35.024C128.694 34.792 128.514 34.608 128.274 34.472C128.038 34.332 127.776 34.262 127.488 34.262C127.004 34.262 126.608 34.418 126.3 34.73C125.996 35.042 125.844 35.432 125.844 35.9C125.844 36.364 125.996 36.752 126.3 37.064C126.608 37.376 127.004 37.532 127.488 37.532C127.776 37.532 128.038 37.464 128.274 37.328C128.514 37.188 128.694 37.004 128.814 36.776L129.3 37.052C129.124 37.364 128.874 37.614 128.55 37.802C128.226 37.986 127.872 38.078 127.488 38.078ZM132.98 33.8V38H132.422V34.328H130.49V38H129.932V33.8H132.98ZM136.492 38V34.868L134.332 38H133.882V33.8H134.44V36.938L136.6 33.8H137.05V38H136.492ZM139.922 38.078C139.286 38.078 138.76 37.868 138.344 37.448C137.932 37.028 137.726 36.512 137.726 35.9C137.726 35.288 137.932 34.772 138.344 34.352C138.76 33.932 139.286 33.722 139.922 33.722C140.306 33.722 140.658 33.814 140.978 33.998C141.302 34.182 141.554 34.43 141.734 34.742L141.248 35.024C141.128 34.792 140.948 34.608 140.708 34.472C140.472 34.332 140.21 34.262 139.922 34.262C139.438 34.262 139.042 34.418 138.734 34.73C138.43 35.042 138.278 35.432 138.278 35.9C138.278 36.364 138.43 36.752 138.734 37.064C139.042 37.376 139.438 37.532 139.922 37.532C140.21 37.532 140.472 37.464 140.708 37.328C140.948 37.188 141.128 37.004 141.248 36.776L141.734 37.052C141.558 37.364 141.308 37.614 140.984 37.802C140.66 37.986 140.306 38.078 139.922 38.078ZM145.085 38L144.743 37.058H142.853L142.511 38H141.917L143.483 33.8H144.113L145.679 38H145.085ZM143.045 36.536H144.551L143.795 34.466L143.045 36.536ZM148.773 33.8H149.325V38H148.773V36.11H146.733V38H146.175V33.8H146.733V35.582H148.773V33.8ZM152.833 38V34.868L150.673 38H150.223V33.8H150.781V36.938L152.941 33.8H153.391V38H152.833ZM157.116 33.8V38H156.564V36.392H155.73L154.644 38H154.014L155.13 36.356C154.842 36.288 154.604 36.136 154.416 35.9C154.228 35.664 154.134 35.398 154.134 35.102C154.134 34.742 154.26 34.436 154.512 34.184C154.768 33.928 155.076 33.8 155.436 33.8H157.116ZM155.436 35.888H156.564V34.322H155.436C155.232 34.322 155.056 34.398 154.908 34.55C154.76 34.702 154.686 34.886 154.686 35.102C154.686 35.318 154.76 35.504 154.908 35.66C155.056 35.812 155.232 35.888 155.436 35.888ZM162.594 37.472H163.044V38.804H162.486V38H159.714V38.804H159.156V37.472H159.522C159.782 37.148 159.912 36.656 159.912 35.996V33.8H162.594V37.472ZM160.152 37.472H162.036V34.322H160.47V36.008C160.47 36.644 160.364 37.132 160.152 37.472ZM167.116 37.442C166.696 37.866 166.182 38.078 165.574 38.078C164.966 38.078 164.452 37.866 164.032 37.442C163.612 37.018 163.402 36.504 163.402 35.9C163.402 35.292 163.612 34.778 164.032 34.358C164.452 33.934 164.966 33.722 165.574 33.722C166.182 33.722 166.696 33.934 167.116 34.358C167.54 34.778 167.752 35.292 167.752 35.9C167.752 36.504 167.54 37.018 167.116 37.442ZM164.416 37.064C164.728 37.376 165.114 37.532 165.574 37.532C166.034 37.532 166.418 37.376 166.726 37.064C167.038 36.748 167.194 36.36 167.194 35.9C167.194 35.436 167.038 35.048 166.726 34.736C166.418 34.42 166.034 34.262 165.574 34.262C165.114 34.262 164.728 34.42 164.416 34.736C164.108 35.048 163.954 35.436 163.954 35.9C163.954 36.36 164.108 36.748 164.416 37.064ZM167.816 38V37.496C168.092 37.536 168.298 37.46 168.434 37.268C168.574 37.072 168.644 36.71 168.644 36.182V33.8H171.416V38H170.858V34.328H169.202V36.182C169.202 36.558 169.166 36.874 169.094 37.13C169.026 37.382 168.926 37.572 168.794 37.7C168.666 37.828 168.522 37.916 168.362 37.964C168.206 38.008 168.024 38.02 167.816 38ZM174.677 33.8V34.328H172.877V38H172.319V33.8H174.677ZM178.436 37.442C178.016 37.866 177.502 38.078 176.894 38.078C176.286 38.078 175.772 37.866 175.352 37.442C174.932 37.018 174.722 36.504 174.722 35.9C174.722 35.292 174.932 34.778 175.352 34.358C175.772 33.934 176.286 33.722 176.894 33.722C177.502 33.722 178.016 33.934 178.436 34.358C178.86 34.778 179.072 35.292 179.072 35.9C179.072 36.504 178.86 37.018 178.436 37.442ZM175.736 37.064C176.048 37.376 176.434 37.532 176.894 37.532C177.354 37.532 177.738 37.376 178.046 37.064C178.358 36.748 178.514 36.36 178.514 35.9C178.514 35.436 178.358 35.048 178.046 34.736C177.738 34.42 177.354 34.262 176.894 34.262C176.434 34.262 176.048 34.42 175.736 34.736C175.428 35.048 175.274 35.436 175.274 35.9C175.274 36.36 175.428 36.748 175.736 37.064ZM182.143 35.822C182.335 35.914 182.487 36.046 182.599 36.218C182.715 36.39 182.773 36.588 182.773 36.812C182.773 37.148 182.655 37.43 182.419 37.658C182.183 37.886 181.895 38 181.555 38H179.743V33.8H181.423C181.751 33.8 182.029 33.91 182.257 34.13C182.485 34.35 182.599 34.622 182.599 34.946C182.599 35.318 182.447 35.61 182.143 35.822ZM181.423 34.322H180.301V35.606H181.423C181.599 35.606 181.747 35.544 181.867 35.42C181.987 35.296 182.047 35.144 182.047 34.964C182.047 34.788 181.985 34.638 181.861 34.514C181.741 34.386 181.595 34.322 181.423 34.322ZM181.555 37.478C181.743 37.478 181.901 37.412 182.029 37.28C182.157 37.148 182.221 36.986 182.221 36.794C182.221 36.606 182.155 36.446 182.023 36.314C181.895 36.182 181.739 36.116 181.555 36.116H180.301V37.478H181.555Z" fill="#202924"/>
</svg>
