<svg width="284" height="82" viewBox="0 0 284 82" fill="none" xmlns="http://www.w3.org/2000/svg">
<path fill-rule="evenodd" clip-rule="evenodd" d="M70.2737 0.278116C70.2139 0.435884 70.1912 18.7264 70.2235 40.9239L70.2824 81.283L70.811 81.358C72.0816 81.538 72.0023 84.2478 72.0023 40.7124C72.0023 9.77443 71.939 0.478539 71.7271 0.266653C71.3659 -0.0945149 70.4125 -0.0869503 70.2737 0.278116ZM20.6361 18.4333C19.1857 19.0997 17.3799 19.9307 16.6232 20.28C14.0301 21.477 4.69956 25.7392 2.83066 26.5806C0.119951 27.801 -0.127705 27.9922 0.202735 28.6098C0.418977 29.0138 0.676495 29.1142 1.49652 29.1142C2.15213 29.1142 2.52751 29.2174 2.54012 29.4009C2.55113 29.5587 2.57681 30.2847 2.59745 31.0146C2.64148 32.5714 2.89441 32.8268 4.29758 32.7314L5.27216 32.6654V33.8688C5.27216 34.8241 5.36687 35.1317 5.73079 35.3589C6.17634 35.6373 6.18941 35.8937 6.18941 44.3677C6.18941 52.8064 6.17451 53.1029 5.73079 53.4829C5.38544 53.7785 5.27216 54.1594 5.27216 55.0243V56.1732H4.11986C3.09414 56.1732 2.94326 56.2376 2.74398 56.7614C2.62107 57.085 2.5204 57.6906 2.5204 58.1075C2.5204 58.8385 2.48303 58.8695 1.46006 58.9848C0.876916 59.0506 0.310969 59.2446 0.202504 59.4159C-0.105005 59.9011 -0.0469855 63.6039 0.273136 63.924C0.483416 64.1343 5.95505 64.1992 23.5026 64.1992C41.0501 64.1992 46.5217 64.1343 46.732 63.924C46.9081 63.7479 47.0072 62.8492 47.0072 61.4261C47.0072 58.955 46.9879 58.925 45.3946 58.925H44.5076L44.4388 57.6064L44.37 56.2879L43.0515 56.2191L41.7329 56.1503V54.7643C41.7329 53.5714 41.6692 53.3618 41.2743 53.2586C40.8258 53.1412 40.8157 52.9458 40.8157 44.3523C40.8157 35.7673 40.8262 35.5625 41.2743 35.4204C41.6644 35.2965 41.7329 35.0734 41.7329 33.9259V32.5769L43.0515 32.5081L44.37 32.4393L44.4361 30.7116L44.5021 28.984L45.5402 28.9388C46.7694 28.8852 47.0072 28.7678 47.0072 28.2135C47.0072 27.9287 46.593 27.6145 45.6886 27.2137C44.9633 26.892 42.9254 25.9637 41.1597 25.1508C39.394 24.3377 37.3301 23.3906 36.5734 23.0464C35.8167 22.702 32.6178 21.2435 29.4647 19.805C26.3116 18.3666 23.6287 17.1968 23.5026 17.2058C23.3764 17.2145 22.0865 17.7669 20.6361 18.4333ZM25.8581 19.7342C26.9588 20.2508 30.2845 21.7891 33.2484 23.1523C41.8318 27.1009 42.6502 27.4896 42.6502 27.6175C42.6502 27.684 34.0854 27.7384 23.6172 27.7384C13.1491 27.7384 4.58605 27.6611 4.58812 27.5664C4.59316 27.3467 22.9068 18.8557 23.4503 18.8211C23.6736 18.8069 24.7571 19.2178 25.8581 19.7342ZM43.1088 30.1462V31.1781H23.6172H4.12559V30.1462V29.1142H23.6172H43.1088V30.1462ZM97.5092 17.7005C97.5092 18.7161 97.4971 18.7324 96.7488 18.7324C94.4908 18.7324 91.7315 19.5625 90.1279 20.724C86.0894 23.6489 86.269 30.8149 90.4528 33.6873C91.8305 34.633 93.3536 35.1033 95.8467 35.3526L97.5092 35.5188V36.5367V37.5546L99.3869 37.4879L101.264 37.4214L101.279 36.5069L101.293 35.5926L103.357 35.3259C106.562 34.912 108.459 34.0427 109.857 32.3472C111.962 29.7933 112.058 24.7617 110.052 22.1315C108.597 20.2245 106.628 19.2777 103.242 18.8574L101.293 18.6154V17.6418V16.6679L99.4011 16.6683L97.5092 16.6686V17.7005ZM123.826 17.3496C119.615 18.1146 116.82 20.5641 115.989 24.2176C114.918 28.9228 116.398 33.0596 119.928 35.2317C123.835 37.6354 130.673 37.2272 134.189 34.3805C134.737 33.9363 134.741 33.9129 134.346 33.311C133.747 32.3958 133.475 32.3926 132.15 33.2844C130.62 34.3138 128.766 34.8662 126.861 34.8609C124.203 34.8533 122.589 34.1255 121.205 32.3107C120.234 31.0382 119.959 30.0857 119.815 27.4997C119.524 22.2555 122.038 19.191 126.63 19.191C128.819 19.191 130.345 19.7019 132.068 21.0122L133.261 21.9196L133.845 21.2257C134.166 20.8439 134.429 20.4449 134.429 20.3389C134.429 19.9395 131.571 18.2591 130.106 17.7972C128.4 17.2593 125.472 17.0506 123.826 17.3496ZM146.124 17.2737C145.682 17.3304 144.805 17.5411 144.174 17.742C139.747 19.1525 137.639 22.1349 137.639 26.9877C137.639 31.2799 139.334 34.1473 142.8 35.7188C146.599 37.4416 152.105 37.0751 155.28 34.8882C156.497 34.05 156.609 33.732 155.961 32.959C155.525 32.4389 155.447 32.421 154.956 32.7297C154.662 32.9138 153.957 33.3532 153.387 33.7061C151.899 34.6284 149.25 35.1287 147.494 34.8194C145.771 34.5158 144.828 34.0686 143.734 33.0374C142.654 32.0183 142.087 30.7553 141.758 28.6376C141.115 24.4939 142.878 20.5591 145.829 19.5538C147.195 19.088 149.596 19.0899 151.184 19.5579C151.869 19.7597 153.022 20.3273 153.746 20.8191C154.469 21.311 155.14 21.7102 155.236 21.7063C155.332 21.7022 155.607 21.4296 155.848 21.1C156.151 20.6841 156.219 20.397 156.069 20.1599C155.733 19.6278 153.205 18.1797 151.834 17.7337C150.579 17.3258 147.592 17.0852 146.124 17.2737ZM163.696 19.707C162.976 29.7231 162.666 32.6877 162.28 33.2773C161.781 34.0388 160.814 34.555 159.887 34.555H159.181L159.245 37.5934L159.309 40.6318H160.797H162.286L162.45 39.5999C162.54 39.0323 162.676 38.0777 162.753 37.4787L162.892 36.3895H170.087H177.282L177.43 37.4787C177.512 38.0777 177.65 39.0323 177.736 39.5999L177.894 40.6318H179.379H180.865L180.929 37.6062L180.992 34.5807L179.897 34.5105L178.801 34.4403L178.741 26.0131L178.68 17.5858H171.264H163.848L163.696 19.707ZM174.788 27.1064V34.5633L169.858 34.5456C167.146 34.5357 164.927 34.4488 164.927 34.3521C164.927 34.2555 165.187 33.9324 165.505 33.6341C166.322 32.8666 166.464 32.1071 166.881 26.2997C167.084 23.462 167.3 20.8049 167.361 20.3949L167.471 19.6496H171.129H174.788V27.1064ZM14.9033 33.9053C14.9033 34.895 14.9953 35.2919 15.2473 35.3887C15.7564 35.5839 15.7678 53.0754 15.259 53.2706C15.0342 53.3568 14.9047 53.8276 14.8577 54.7283C14.7898 56.0381 14.7781 56.0585 14.1007 56.0585C13.4249 56.0585 13.4116 56.0356 13.3444 54.7519C13.2889 53.6923 13.1915 53.4185 12.8285 53.3033C12.3949 53.1658 12.3809 52.8871 12.3809 44.3636C12.3809 35.7673 12.3914 35.5625 12.8395 35.4204C13.2302 35.2963 13.2981 35.0734 13.2981 33.9145V32.5539H14.1007H14.9033V33.9053ZM21.3241 33.3565V34.1591H18.8016H16.2792V33.479V32.7989L18.7443 32.725C20.1002 32.6844 21.2353 32.6294 21.2668 32.6026C21.2982 32.576 21.3241 32.9151 21.3241 33.3565ZM24.3051 33.9145C24.3051 35.0734 24.373 35.2963 24.7638 35.4204C25.2119 35.5625 25.2224 35.7673 25.2224 44.3523C25.2224 52.9458 25.2123 53.1412 24.7638 53.2586C24.3678 53.362 24.3051 53.5714 24.3051 54.7904V56.2023L23.5599 56.1303C22.8233 56.0595 22.8139 56.0434 22.7458 54.7421C22.6924 53.7152 22.5789 53.3728 22.2299 53.186C21.7988 52.9553 21.7827 52.639 21.7827 44.3574C21.7827 36.0166 21.796 35.76 22.2413 35.4818C22.6025 35.2564 22.7 34.9471 22.7 34.0275C22.7 32.6753 22.7786 32.5539 23.6555 32.5539C24.2957 32.5539 24.3051 32.5734 24.3051 33.9145ZM33.8544 33.9069C33.8776 34.7808 33.9957 35.206 34.2557 35.3516C34.5841 35.5355 34.6242 36.508 34.6242 44.2923C34.6242 51.8043 34.5759 53.0626 34.2791 53.2816C34.0592 53.4437 33.9136 53.9936 33.8778 54.7973C33.8226 56.0393 33.8102 56.0597 33.0764 56.1303L32.3311 56.2023V54.9285C32.3311 53.903 32.2417 53.5987 31.8725 53.3682C31.4269 53.0899 31.4139 52.8335 31.4139 44.3636C31.4139 35.8937 31.4269 35.6373 31.8725 35.3589C32.2417 35.1284 32.3311 34.8241 32.3311 33.7987V32.5248L33.0764 32.5968C33.8116 32.6677 33.8221 32.6853 33.8544 33.9069ZM40.3142 33.2992L40.2424 34.0445L37.7773 34.1096L35.3122 34.1747V33.3643V32.5539H37.8491H40.3862L40.3142 33.2992ZM11.9222 33.4712V34.1591H9.3998H6.87735V33.4712V32.7833H9.3998H11.9222V33.4712ZM30.8406 33.4712C30.8406 34.0426 30.833 34.0447 28.4025 34.1094L25.9647 34.174L25.8615 33.4714L25.7583 32.769L28.2996 32.8335C30.8399 32.8979 30.8406 32.8981 30.8406 33.4712ZM97.5092 27.1023V33.4084L96.42 33.4034C94.261 33.3935 92.5788 32.1655 91.7606 30.0024C91.3522 28.9233 91.288 28.3638 91.3744 26.6437C91.4804 24.5349 91.8592 23.4379 92.8998 22.2262C93.555 21.4635 95.1764 20.807 96.42 20.8012L97.5092 20.7962V27.1023ZM105.123 21.6155C106.538 22.6108 107.201 24.0598 107.326 26.4313C107.508 29.8967 106.63 31.8908 104.494 32.8691C103.642 33.2592 102.951 33.4135 102.275 33.3646L101.293 33.2938L101.232 27.3353C101.198 24.0582 101.225 21.234 101.292 21.0592C101.519 20.4692 104.005 20.8304 105.123 21.6155ZM11.005 44.3737V53.2123L9.34247 53.1449L7.67995 53.0775L7.61987 44.3062L7.55979 35.535H9.28239H11.005V44.3737ZM20.6361 44.3636V53.1921H18.9163H17.1964V44.3636V35.535H18.9163H20.6361V44.3636ZM30.038 44.3737V53.2123L28.3755 53.1449L26.7129 53.0775L26.6526 44.5938C26.6196 39.9277 26.6421 35.9808 26.7028 35.8226C26.7769 35.6297 27.3445 35.535 28.4257 35.535H30.038V44.3737ZM39.4398 44.3636V53.1921H37.8346H36.2294V44.3636V35.535H37.8346H39.4398V44.3636ZM11.8794 55.3133L11.8076 56.0585L9.34247 56.1237L6.87735 56.1888V55.3784V54.568H9.41424H11.9514L11.8794 55.3133ZM21.3241 55.3706V56.1732H18.8016H16.2792V55.3706V54.568H18.8016H21.3241V55.3706ZM30.8406 55.3706V56.0585L28.3755 56.1237L25.9103 56.1888V55.3706V54.5524L28.3755 54.6175L30.8406 54.6827V55.3706ZM40.3142 55.3133L40.2424 56.0585L37.7773 56.1237L35.3122 56.1888V55.3784V54.568H37.8491H40.3862L40.3142 55.3133ZM43.1088 58.237V58.925H23.6172H4.12559V58.237V57.5491H23.6172H43.1088V58.237ZM45.587 61.5047L45.5166 62.4793L23.5599 62.5378L1.60315 62.5963V61.5632V60.5302H23.6303H45.6576L45.587 61.5047Z" fill="#F2F3F7"/>
<path d="M93.3415 53.5957C93.9064 54.0426 94.1888 54.6448 94.1888 55.4021C94.1888 56.1594 93.9064 56.7616 93.3415 57.2085C92.7828 57.6555 92.0347 57.91 91.0974 57.9721V58.7077H90.25V57.9721C89.3189 57.91 88.5709 57.6555 88.006 57.2085C87.4473 56.7616 87.1679 56.1594 87.1679 55.4021C87.1679 54.6448 87.4473 54.0426 88.006 53.5957C88.5709 53.1487 89.3189 52.8942 90.25 52.8321V52.0965H91.0974V52.8321C92.0347 52.8942 92.7828 53.1487 93.3415 53.5957ZM91.0974 57.1806C91.7989 57.1309 92.3451 56.9602 92.7362 56.6685C93.1273 56.3705 93.3228 55.9484 93.3228 55.4021C93.3228 54.8558 93.1273 54.4368 92.7362 54.1451C92.3451 53.8471 91.7989 53.6733 91.0974 53.6236V57.1806ZM88.0246 55.4021C88.0246 55.9422 88.2201 56.3612 88.6112 56.6592C89.0023 56.9509 89.5486 57.1216 90.25 57.1713V53.6236C89.5486 53.6733 89.0023 53.8471 88.6112 54.1451C88.2201 54.4368 88.0246 54.8558 88.0246 55.4021ZM96.0008 57.8417H99.027V58.6611H95.1348V52.1431H98.9804V52.9625H96.0008V54.9645H98.7476V55.7746H96.0008V57.8417ZM104.849 57.8417H105.548V59.9089H104.682V58.6611H100.38V59.9089H99.5137V57.8417H100.082C100.485 57.3389 100.687 56.5754 100.687 55.5511V52.1431H104.849V57.8417ZM101.059 57.8417H103.983V52.9532H101.553V55.5697C101.553 56.5567 101.388 57.3141 101.059 57.8417ZM107.413 57.8417H110.439V58.6611H106.547V52.1431H110.392V52.9625H107.413V54.9645H110.16V55.7746H107.413V57.8417ZM113.85 52.1431C114.452 52.1431 114.951 52.3448 115.349 52.7483C115.752 53.1456 115.954 53.6422 115.954 54.2382C115.954 54.8279 115.752 55.3245 115.349 55.728C114.951 56.1315 114.452 56.3333 113.85 56.3333H112.35V58.6611H111.484V52.1431H113.85ZM113.85 55.5232C114.21 55.5232 114.508 55.4021 114.743 55.16C114.979 54.9117 115.097 54.6044 115.097 54.2382C115.097 53.8657 114.979 53.5584 114.743 53.3163C114.508 53.0742 114.21 52.9532 113.85 52.9532H112.35V55.5232H113.85ZM120.606 58.6611L120.075 57.1992H117.142L116.611 58.6611H115.689L118.119 52.1431H119.097L121.527 58.6611H120.606ZM117.44 56.3891H119.777L118.604 53.1767L117.44 56.3891ZM121.756 58.6611V57.879C122.184 57.941 122.504 57.8231 122.715 57.5251C122.932 57.221 123.041 56.6592 123.041 55.8398V52.1431H127.342V58.6611H126.476V52.9625H123.907V55.8398C123.907 56.4233 123.851 56.9137 123.739 57.311C123.633 57.7021 123.478 57.9969 123.273 58.1956C123.075 58.3942 122.851 58.5308 122.603 58.6053C122.361 58.6735 122.078 58.6922 121.756 58.6611ZM131.109 54.471C131.711 54.471 132.21 54.6727 132.608 55.0762C133.011 55.4797 133.213 55.9763 133.213 56.5661C133.213 57.162 133.011 57.6617 132.608 58.0652C132.21 58.4625 131.711 58.6611 131.109 58.6611H128.743V52.1431H129.609V54.471H131.109ZM131.109 57.851C131.469 57.851 131.767 57.73 132.002 57.4879C132.238 57.2458 132.356 56.9385 132.356 56.5661C132.356 56.1998 132.238 55.8956 132.002 55.6535C131.767 55.4052 131.469 55.2811 131.109 55.2811H129.609V57.851H131.109ZM138.268 52.1431H139.124V58.6611H138.268V55.728H135.102V58.6611H134.236V52.1431H135.102V54.9086H138.268V52.1431ZM144.812 58.6611L144.281 57.1992H141.348L140.817 58.6611H139.895L142.326 52.1431H143.303L145.734 58.6611H144.812ZM141.646 56.3891H143.983L142.81 53.1767L141.646 56.3891ZM150.915 52.1431V58.6611H150.059V56.1657H148.765L147.079 58.6611H146.101L147.833 56.1098C147.386 56.0043 147.017 55.7684 146.725 55.4021C146.434 55.0359 146.288 54.6231 146.288 54.1637C146.288 53.605 146.483 53.1301 146.874 52.739C147.272 52.3417 147.75 52.1431 148.308 52.1431H150.915ZM148.308 55.3835H150.059V52.9532H148.308C147.992 52.9532 147.719 53.0711 147.489 53.307C147.259 53.5429 147.144 53.8285 147.144 54.1637C147.144 54.4989 147.259 54.7876 147.489 55.0297C147.719 55.2655 147.992 55.3835 148.308 55.3835ZM157.704 58.7822C156.717 58.7822 155.901 58.4563 155.255 57.8045C154.616 57.1527 154.296 56.3519 154.296 55.4021C154.296 54.4523 154.616 53.6516 155.255 52.9998C155.901 52.348 156.717 52.0221 157.704 52.0221C158.3 52.0221 158.847 52.1648 159.343 52.4504C159.846 52.7359 160.237 53.1208 160.516 53.605L159.762 54.0426C159.576 53.6826 159.297 53.397 158.924 53.186C158.558 52.9687 158.151 52.8601 157.704 52.8601C156.953 52.8601 156.339 53.1022 155.861 53.5864C155.389 54.0706 155.153 54.6758 155.153 55.4021C155.153 56.1222 155.389 56.7243 155.861 57.2085C156.339 57.6927 156.953 57.9348 157.704 57.9348C158.151 57.9348 158.558 57.8293 158.924 57.6182C159.297 57.401 159.576 57.1154 159.762 56.7616L160.516 57.1899C160.243 57.6741 159.855 58.0621 159.353 58.3539C158.85 58.6394 158.3 58.7822 157.704 58.7822ZM160.793 58.6611V57.879C161.221 57.941 161.541 57.8231 161.752 57.5251C161.969 57.221 162.078 56.6592 162.078 55.8398V52.1431H166.38V58.6611H165.514V52.9625H162.944V55.8398C162.944 56.4233 162.888 56.9137 162.776 57.311C162.671 57.7021 162.515 57.9969 162.311 58.1956C162.112 58.3942 161.888 58.5308 161.64 58.6053C161.398 58.6735 161.116 58.6922 160.793 58.6611ZM171.515 52.1431H172.39L170.295 57.1154C170.059 57.6741 169.758 58.0807 169.392 58.3352C169.025 58.5835 168.578 58.6922 168.051 58.6611V57.8603C168.411 57.8976 168.702 57.8448 168.926 57.7021C169.149 57.5593 169.336 57.3141 169.485 56.9664L169.55 56.8175L167.343 52.1431H168.218L169.95 55.8677L171.515 52.1431ZM180.308 58.6611H179.321L176.853 55.5325V58.6611H175.997V55.5325L173.529 58.6611H172.551L175.158 55.3276L172.644 52.1431H173.622L175.997 55.1321V52.1431H176.853V55.1321L179.228 52.1431H180.215L177.691 55.3276L180.308 58.6611ZM183.615 54.7038C184.18 54.7038 184.658 54.8962 185.049 55.2811C185.44 55.6597 185.635 56.1253 185.635 56.6778C185.635 57.2427 185.44 57.7145 185.049 58.0931C184.664 58.4718 184.186 58.6611 183.615 58.6611H181.166V52.1431H185.077V52.9625H182.032V54.7038H183.615ZM183.615 57.851C183.938 57.851 184.211 57.7393 184.434 57.5158C184.664 57.2923 184.779 57.013 184.779 56.6778C184.779 56.3488 184.664 56.0725 184.434 55.8491C184.211 55.6256 183.938 55.5139 183.615 55.5139H182.032V57.851H183.615ZM190.769 58.6611L190.238 57.1992H187.305L186.774 58.6611H185.852L188.283 52.1431H189.26L191.691 58.6611H190.769ZM187.603 56.3891H189.94L188.767 53.1767L187.603 56.3891ZM197.851 58.7822C196.864 58.7822 196.048 58.4563 195.402 57.8045C194.763 57.1527 194.443 56.3519 194.443 55.4021C194.443 54.4523 194.763 53.6516 195.402 52.9998C196.048 52.348 196.864 52.0221 197.851 52.0221C198.447 52.0221 198.993 52.1648 199.49 52.4504C199.993 52.7359 200.384 53.1208 200.663 53.605L199.909 54.0426C199.723 53.6826 199.443 53.397 199.071 53.186C198.705 52.9687 198.298 52.8601 197.851 52.8601C197.1 52.8601 196.485 53.1022 196.007 53.5864C195.536 54.0706 195.3 54.6758 195.3 55.4021C195.3 56.1222 195.536 56.7243 196.007 57.2085C196.485 57.6927 197.1 57.9348 197.851 57.9348C198.298 57.9348 198.705 57.8293 199.071 57.6182C199.443 57.401 199.723 57.1154 199.909 56.7616L200.663 57.1899C200.39 57.6741 200.002 58.0621 199.499 58.3539C198.996 58.6394 198.447 58.7822 197.851 58.7822ZM206.374 52.1431V58.6611H205.508V52.9625H202.51V58.6611H201.644V52.1431H206.374ZM211.823 58.6611V53.8005L208.471 58.6611H207.773V52.1431H208.639V57.013L211.991 52.1431H212.689V58.6611H211.823ZM217.147 58.7822C216.16 58.7822 215.344 58.4563 214.698 57.8045C214.059 57.1527 213.739 56.3519 213.739 55.4021C213.739 54.4523 214.059 53.6516 214.698 52.9998C215.344 52.348 216.16 52.0221 217.147 52.0221C217.743 52.0221 218.289 52.1648 218.786 52.4504C219.289 52.7359 219.68 53.1208 219.959 53.605L219.205 54.0426C219.019 53.6826 218.739 53.397 218.367 53.186C218 52.9687 217.594 52.8601 217.147 52.8601C216.396 52.8601 215.781 53.1022 215.303 53.5864C214.831 54.0706 214.596 54.6758 214.596 55.4021C214.596 56.1222 214.831 56.7243 215.303 57.2085C215.781 57.6927 216.396 57.9348 217.147 57.9348C217.594 57.9348 218 57.8293 218.367 57.6182C218.739 57.401 219.019 57.1154 219.205 56.7616L219.959 57.1899C219.686 57.6741 219.298 58.0621 218.795 58.3539C218.292 58.6394 217.743 58.7822 217.147 58.7822ZM225.16 58.6611L224.629 57.1992H221.696L221.165 58.6611H220.243L222.673 52.1431H223.651L226.081 58.6611H225.16ZM221.994 56.3891H224.331L223.158 53.1767L221.994 56.3891ZM230.882 52.1431H231.739V58.6611H230.882V55.728H227.716V58.6611H226.85V52.1431H227.716V54.9086H230.882V52.1431ZM237.184 58.6611V53.8005L233.832 58.6611H233.134V52.1431H234V57.013L237.352 52.1431H238.05V58.6611H237.184ZM243.83 52.1431V58.6611H242.974V56.1657H241.679L239.994 58.6611H239.016L240.748 56.1098C240.301 56.0043 239.932 55.7684 239.64 55.4021C239.348 55.0359 239.202 54.6231 239.202 54.1637C239.202 53.605 239.398 53.1301 239.789 52.739C240.186 52.3417 240.664 52.1431 241.223 52.1431H243.83ZM241.223 55.3835H242.974V52.9532H241.223C240.906 52.9532 240.633 53.0711 240.404 53.307C240.174 53.5429 240.059 53.8285 240.059 54.1637C240.059 54.4989 240.174 54.7876 240.404 55.0297C240.633 55.2655 240.906 55.3835 241.223 55.3835ZM252.332 57.8417H253.031V59.9089H252.165V58.6611H247.863V59.9089H246.997V57.8417H247.565C247.968 57.3389 248.17 56.5754 248.17 55.5511V52.1431H252.332V57.8417ZM248.543 57.8417H251.466V52.9532H249.036V55.5697C249.036 56.5567 248.872 57.3141 248.543 57.8417ZM259.349 57.7952C258.697 58.4532 257.9 58.7822 256.956 58.7822C256.013 58.7822 255.215 58.4532 254.563 57.7952C253.911 57.1372 253.585 56.3395 253.585 55.4021C253.585 54.4586 253.911 53.6609 254.563 53.0091C255.215 52.3511 256.013 52.0221 256.956 52.0221C257.9 52.0221 258.697 52.3511 259.349 53.0091C260.007 53.6609 260.336 54.4586 260.336 55.4021C260.336 56.3395 260.007 57.1372 259.349 57.7952ZM255.159 57.2085C255.643 57.6927 256.242 57.9348 256.956 57.9348C257.67 57.9348 258.266 57.6927 258.744 57.2085C259.228 56.7181 259.47 56.116 259.47 55.4021C259.47 54.682 259.228 54.0799 258.744 53.5957C258.266 53.1053 257.67 52.8601 256.956 52.8601C256.242 52.8601 255.643 53.1053 255.159 53.5957C254.681 54.0799 254.442 54.682 254.442 55.4021C254.442 56.116 254.681 56.7181 255.159 57.2085ZM260.437 58.6611V57.879C260.865 57.941 261.185 57.8231 261.396 57.5251C261.613 57.221 261.722 56.6592 261.722 55.8398V52.1431H266.023V58.6611H265.157V52.9625H262.587V55.8398C262.587 56.4233 262.532 56.9137 262.42 57.311C262.314 57.7021 262.159 57.9969 261.954 58.1956C261.756 58.3942 261.532 58.5308 261.284 58.6053C261.042 58.6735 260.759 58.6922 260.437 58.6611ZM271.084 52.1431V52.9625H268.29V58.6611H267.424V52.1431H271.084ZM276.917 57.7952C276.266 58.4532 275.468 58.7822 274.524 58.7822C273.581 58.7822 272.783 58.4532 272.131 57.7952C271.479 57.1372 271.154 56.3395 271.154 55.4021C271.154 54.4586 271.479 53.6609 272.131 53.0091C272.783 52.3511 273.581 52.0221 274.524 52.0221C275.468 52.0221 276.266 52.3511 276.917 53.0091C277.575 53.6609 277.904 54.4586 277.904 55.4021C277.904 56.3395 277.575 57.1372 276.917 57.7952ZM272.727 57.2085C273.211 57.6927 273.81 57.9348 274.524 57.9348C275.238 57.9348 275.834 57.6927 276.312 57.2085C276.796 56.7181 277.038 56.116 277.038 55.4021C277.038 54.682 276.796 54.0799 276.312 53.5957C275.834 53.1053 275.238 52.8601 274.524 52.8601C273.81 52.8601 273.211 53.1053 272.727 53.5957C272.249 54.0799 272.01 54.682 272.01 55.4021C272.01 56.116 272.249 56.7181 272.727 57.2085ZM282.67 55.2811C282.968 55.4238 283.204 55.6287 283.378 55.8956C283.558 56.1626 283.648 56.4698 283.648 56.8175C283.648 57.3389 283.465 57.7765 283.098 58.1304C282.732 58.4842 282.285 58.6611 281.758 58.6611H278.945V52.1431H281.553C282.062 52.1431 282.493 52.3138 282.847 52.6552C283.201 52.9967 283.378 53.4188 283.378 53.9216C283.378 54.4989 283.142 54.9521 282.67 55.2811ZM281.553 52.9532H279.811V54.9459H281.553C281.826 54.9459 282.056 54.8496 282.242 54.6572C282.428 54.4648 282.521 54.2289 282.521 53.9495C282.521 53.6764 282.425 53.4436 282.232 53.2512C282.046 53.0525 281.82 52.9532 281.553 52.9532ZM281.758 57.851C282.049 57.851 282.295 57.7486 282.493 57.5438C282.692 57.3389 282.791 57.0875 282.791 56.7895C282.791 56.4978 282.689 56.2495 282.484 56.0446C282.285 55.8398 282.043 55.7373 281.758 55.7373H279.811V57.851H281.758Z" fill="#F2F3F7"/>
</svg>
